<?xml version="1.0" encoding="UTF-8"?>
<svg id="Capa_1" xmlns="http://www.w3.org/2000/svg" version="1.1" viewBox="0 0 482.1 482.1">
  <!-- Generator: Adobe Illustrator 30.3.0, SVG Export Plug-In . SVG Version: 2.1.3 Build 182)  -->
  <defs>
    <style>
      .st0 {
        fill: #1f3448;
      }
    </style>
  </defs>
  <path class="st0" d="M142,310.2c0-8-5.6-12.8-15.4-12.8s-6.7.4-8.1.8v25.7c1.7.4,3.7.5,6.6.5,10.4,0,16.9-5.3,16.9-14.2Z"/>
  <path class="st0" d="M202.7,297.7c-4.4,0-7.2.4-8.9.8v56.9c1.7.4,4.4.4,6.8.4,17.8.1,29.4-9.7,29.4-30.4.1-18.1-10.5-27.6-27.4-27.6Z"/>
  <path class="st0" d="M315.5,0H121.8c-28.3,0-51.3,23-51.3,51.3v189.8h-5c-11.4,0-20.7,9.3-20.7,20.7v125.4c0,11.4,9.3,20.7,20.7,20.7h5v23c0,28.3,23,51.3,51.3,51.3h264.2c28.3,0,51.3-23,51.3-51.3V121.4L315.5,0ZM99.1,284.4c6.1-1,14.6-1.8,26.6-1.8s20.8,2.3,26.6,7c5.5,4.4,9.3,11.6,9.3,20.1s-2.8,15.7-8,20.6c-6.7,6.3-16.6,9.2-28.3,9.2s-4.9-.1-6.7-.4v31.1h-19.5v-85.8ZM386,450.7H121.8c-11,0-19.9-8.9-19.9-19.9v-23h246.3c11.4,0,20.7-9.2,20.7-20.7v-125.4c0-11.4-9.3-20.7-20.7-20.7H101.9V51.3c0-10.9,8.9-19.9,19.9-19.9l181.9-.2v67.2c0,19.6,15.9,35.6,35.6,35.6l65.9-.2.7,296.9c0,11-8.9,19.9-19.9,19.9ZM174.1,369.8v-85.4c7.2-1.1,16.6-1.8,26.6-1.8,16.5,0,27.2,3,35.6,9.3,9,6.7,14.7,17.4,14.7,32.8s-6.1,28.1-14.5,35.2c-9.2,7.6-23.1,11.2-40.1,11.2-10.2,0-17.4-.6-22.3-1.3ZM314.9,319.2v16h-31.2v35h-19.7v-87h53.2v16.1h-33.4v19.9h31.2Z"/>
</svg>