<?xml version="1.0" encoding="UTF-8"?>
<svg id="Camada_1" xmlns="http://www.w3.org/2000/svg" version="1.1" viewBox="0 0 24 24">
  <!-- Generator: Adobe Illustrator 30.3.0, SVG Export Plug-In . SVG Version: 2.1.3 Build 182)  -->
  <defs>
    <style>
      .st0 {
        fill: #cc643e;
      }
    </style>
  </defs>
  <path class="st0" d="M12,12.9c-.1,0-.3,0-.4,0L3.6,8.8c-.3-.2-.5-.5-.5-.8s.2-.7.5-.8L11.6,3.2c.3-.1.6-.1.8,0l8,4c.3.2.5.5.5.8s-.2.7-.5.8l-8,4c-.1,0-.3,0-.4,0ZM6,8l6,3,6-3-6-3-6,3Z"/>
  <path class="st0" d="M12,16.9c-.1,0-.3,0-.4,0l-8-4c-.4-.2-.6-.8-.4-1.2.2-.4.8-.6,1.2-.4l7.6,3.8,7.6-3.8c.4-.2,1,0,1.2.4.2.4,0,1-.4,1.2l-8,4c-.1,0-.3,0-.4,0Z"/>
  <path class="st0" d="M12,20.9c-.1,0-.3,0-.4,0l-8-4c-.4-.2-.6-.8-.4-1.2s.8-.6,1.2-.4l7.6,3.8,7.6-3.8c.4-.2,1,0,1.2.4.2.4,0,1-.4,1.2l-8,4c-.1,0-.3,0-.4,0Z"/>
</svg>