<?xml version="1.0" encoding="UTF-8"?>
<svg id="Camada_1" xmlns="http://www.w3.org/2000/svg" version="1.1" viewBox="0 0 24 24">
  <!-- Generator: Adobe Illustrator 30.3.0, SVG Export Plug-In . SVG Version: 2.1.3 Build 182)  -->
  <defs>
    <style>
      .st0 {
        fill: #d16d41;
      }
    </style>
  </defs>
  <path class="st0" d="M10.5,16.9c-3.5,0-6.4-2.9-6.4-6.4s2.9-6.4,6.4-6.4,6.4,2.9,6.4,6.4-2.9,6.4-6.4,6.4ZM10.5,5.9c-2.5,0-4.6,2.1-4.6,4.6s2.1,4.6,4.6,4.6,4.6-2.1,4.6-4.6-2.1-4.6-4.6-4.6Z"/>
  <path class="st0" d="M19,19.9c-.2,0-.5,0-.6-.3l-4-4c-.4-.4-.4-.9,0-1.3s.9-.4,1.3,0l4,4c.4.4.4.9,0,1.3s-.4.3-.6.3Z"/>
  <path class="st0" d="M9.7,11.6s0,0,0-.1h0c0-.2,0-.2,0-.3s0,0,0-.1c0-.2,0-.3,0-.4s0-.2.1-.3.1-.2.2-.3.1-.2.2-.2.1-.1.2-.2.1-.1.2-.2.1-.1.1-.2,0-.2,0-.2,0-.2,0-.2,0-.1-.1-.2-.1,0-.2-.1-.2,0-.3,0c-.2,0-.4,0-.6.1s-.4.2-.6.3l-.3-1.1c.2-.2.5-.3.8-.4s.6-.2,1-.2.6,0,.8.1.4.2.6.3.3.3.4.5.1.4.1.7,0,.4-.1.6-.2.3-.3.4-.2.2-.3.4-.2.2-.3.3-.2.2-.3.4-.1.3-.1.4v.4h-1.4ZM10.3,12.1c.1,0,.3,0,.4,0s.2.1.3.2.1.2.2.3,0,.2,0,.4,0,.2,0,.4-.1.2-.2.3-.2.1-.3.2-.2,0-.4,0-.3,0-.4,0-.2-.1-.3-.2-.1-.2-.2-.3,0-.2,0-.4,0-.2,0-.4.1-.2.2-.3.2-.1.3-.2.2,0,.4,0Z"/>
</svg>