<?xml version="1.0" encoding="UTF-8"?>
<svg id="Camada_1" xmlns="http://www.w3.org/2000/svg" version="1.1" viewBox="0 0 24 24">
  <!-- Generator: Adobe Illustrator 30.3.0, SVG Export Plug-In . SVG Version: 2.1.3 Build 182)  -->
  <defs>
    <style>
      .st0 {
        fill: #d26d41;
      }
    </style>
  </defs>
  <path class="st0" d="M18,6.4H6c-.5,0-.9-.4-.9-.9s.4-.9.9-.9h12c.5,0,.9.4.9.9s-.4.9-.9.9Z"/>
  <path class="st0" d="M14,9.9H6c-.5,0-.9-.4-.9-.9s.4-.9.9-.9h8c.5,0,.9.4.9.9s-.4.9-.9.9Z"/>
  <path class="st0" d="M16,13.4H6c-.5,0-.9-.4-.9-.9s.4-.9.9-.9h10c.5,0,.9.4.9.9s-.4.9-.9.9Z"/>
  <path class="st0" d="M11,16.9h-5c-.5,0-.9-.4-.9-.9s.4-.9.9-.9h5c.5,0,.9.4.9.9s-.4.9-.9.9Z"/>
  <path class="st0" d="M16.5,20.4c-.2,0-.5,0-.6-.3-.4-.4-.4-.9,0-1.3l1.9-1.9-1.9-1.9c-.4-.4-.4-.9,0-1.3s.9-.4,1.3,0l2.5,2.5c.4.4.4.9,0,1.3l-2.5,2.5c-.2.2-.4.3-.6.3Z"/>
  <path class="st0" d="M19,17.9h-6c-.5,0-.9-.4-.9-.9s.4-.9.9-.9h6c.5,0,.9.4.9.9s-.4.9-.9.9Z"/>
</svg>