<?xml version="1.0" encoding="UTF-8"?>
<svg id="Camada_1" data-name="Camada 1" xmlns="http://www.w3.org/2000/svg" viewBox="0 0 1255.52 299.6">
  <defs>
    <style>
      .cls-1 {
        fill: #d35d26;
      }
    </style>
  </defs>
  <path class="cls-1" d="M100.16,27.65c1.05-1.05,1.75-1.4,2.8-1.4,2.45,0,4.55,3.15,2.45,5.6-1.4,1.4-.35-.35-4.9,12.95C89.66,76.3,7.41,279.65,7.76,285.25c.35,3.15-1.75,4.9-3.85,4.9-2.45,0-4.9-2.45-3.5-7.7C9.16,248.85,98.06,29.4,100.16,27.65ZM2.51,36.75C-9.04,23.1,71.81,12.6,94.91,11.55c7.35-.35,40.25-2.1,70.7-2.1,25.9,0,50.05,1.4,56,5.25,2.45,1.75,2.1,7.35-3.15,7.35-.7,0-1.4,0-2.1-.35-8.4-2.1-25.55-3.15-45.85-3.15-49.35,0-119.35,5.6-139.3,11.9-1.4.35,7.35,2.8,2.8,8.4-1.05,1.05-2.8,2.1-4.2,1.75-1.05-.7-1.75-1.75-1.75-2.8s-.35-1.05-3.85-1.4h-2.1c-6.65,0-12.25,1.75-15.75,1.75-1.75,0-3.15-.35-3.85-1.4Z"/>
  <path class="cls-1" d="M104.71,114.1c-.7,2.8-7.35,19.6-8.05,22.05-5.95,16.45-8.75,22.75-8.4,22.75s1.75-1.75,3.85-4.9c3.85-5.6,17.5-23.1,24.5-22.75,7.35.35,7.7,10.15,8.05,17.15,1.05,14.35,2.8,20.3,7,20.3,4.9,0,13.3-8.05,28.35-20.65,5.25,1.05,5.6,4.2,0,8.4-20.3,16.1-22.4,19.25-27.65,19.25h-1.05c-12.25-.7-12.6-15.4-13.65-27.65-.35-7-.7-9.8-1.75-9.8-.7,0-2.1,1.4-4.55,3.5-14,12.95-32.2,43.75-36.05,47.6-.7.7-1.75,1.05-2.45,1.05-1.05,0-1.75-.35-2.45-1.05-2.8-2.45-2.1-4.9,9.45-41.3,7-22.05,42.7-131.25,66.85-131.25,1.4,0,2.8,0,3.5.7,11.55,6.65-6.3,38.15-12.95,49.7-19.25,34.65-31.5,42-32.55,46.9ZM112.41,92.4c-.35,1.05-.7,1.75-.35,1.75,1.75,0,24.15-35,31.85-55.3,3.5-8.4,2.8-14,2.8-14-.35-.7-7.35,4.2-12.25,15.75-24.5,53.55-17.5,39.9-22.05,51.8Z"/>
  <path class="cls-1" d="M161.05,178.15c-1.05,0-1.75,0-2.8-.35-15.05-4.2.35-36.4,15.4-42,1.4-.35,2.8-.7,3.85-.7,4.2,0,7.35,1.4,7.35,5.95.7,0,2.1-2.45,8.05-11.55,2.8-4.55,3.85-5.6,5.95-5.6s3.15,1.05,4.2,3.15c1.75,4.2-5.95,12.95-10.15,31.15-1.75,7.35.35,20.3,7.35,23.8,1.75.7,3.5,1.05,5.25,1.05,16.1,0,42.35-24.5,53.9-35,5.25,1.05,4.55,4.9,1.75,7.7-12.25,11.9-36.75,35-55.65,35-13.3,0-22.4-10.85-22.4-32.55-9.45,11.9-15.4,19.95-22.05,19.95ZM160.35,167.65c0,1.75,0,2.8.7,2.8.35,0,.7-.35,1.4-.7,3.15-2.1,23.8-27.3,20.3-25.9-.35.35-1.05.35-1.4.35-1.75,0-2.45-1.75-3.5-1.75-5.25,0-17.5,15.75-17.5,25.2Z"/>
  <path class="cls-1" d="M283.2,108.15c-.7,0-1.05-.35-1.05-.35-1.05,0-1.4,1.4-5.25,13.3-4.55,14.35-18.55,57.4-14.35,73.15.7,3.15,3.15,4.55,5.95,4.55,4.9,0,11.55-3.5,15.05-5.95,12.6-9.45,44.45-44.1,45.15-44.8,4.55.35,4.9,2.8,2.8,5.25-2.1,2.45-12.95,14.35-26.95,28.35-8.75,8.75-22.05,24.5-37.1,24.5-1.4,0-3.15-.35-4.9-.7-19.95-6.65-.7-69.65,5.6-89.95,8.75-26.95,20.3-64.05,39.2-89.6,2.1-2.8,7-7.35,8.75-8.4.7-.35,1.75-.7,2.8-.7,1.4,0,2.8.7,3.5,1.4,13.3,10.85-19.6,78.75-36.4,88.9-1.4.7-2.1,1.05-2.8,1.05ZM284.25,99.75c.35,0,.7-.7,1.75-1.75,16.45-17.5,32.2-55.3,31.85-72.1-13.65,17.15-25.55,48.65-32.2,69.3-1.05,3.15-1.75,4.55-1.4,4.55Z"/>
  <path class="cls-1" d="M388.55,154.7c-14.35,11.9-37.1,30.1-45.85,35.35-4.9,2.8-10.5,5.25-15.4,5.25-3.85,0-7.35-1.75-9.1-6.3-4.55-12.25,12.25-44.8,12.25-45.15,0-1.05,5.95-12.95,10.5-12.95.7,0,1.4.35,2.1,1.05,1.05,1.05,1.05,1.75,0,4.55-3.15,7.7-18.9,47.6-16.45,51.1,1.75,2.45,36.05-18.55,60.9-39.55,2.45.35,6.65,1.75,1.05,6.65ZM349.7,102.9c1.05-.7,2.8-1.4,3.85-1.4s2.1.35,2.8,1.05c5.25,4.2.7,12.6-4.55,12.6h-1.05c-5.6-1.4-4.55-9.45-1.05-12.25Z"/>
  <path class="cls-1" d="M398.7,217c-9.45,29.05-30.1,45.85-40.95,45.85-3.5,0-6.3-1.75-7-5.25-3.5-13.65,40.95-54.25,40.6-55.65,0-1.05.7-12.6-2.8-30.45-8.05-39.55,14.35-54.6,23.8-54.6,2.8,0,4.55,1.4,4.2,3.5-.7,4.9-6.3-.35-14.35,12.25-9.8,15.4-1.75,25.9,0,59.5,24.5-23.45,50.4-44.8,54.25-49.7,2.45-2.45,10.15-10.5,14-10.5,1.4,0,2.1,1.05,2.45,1.4,1.75,2.1,1.4,4.2-2.45,8.05-8.75,10.5-11.2,14-12.25,41.3-.35,5.25-1.4,12.6-1.75,20.3,13.65-11.2,41.3-37.8,59.5-54.95,4.9.7,5.95,2.1,1.4,6.65-2.8,2.8-36.4,35.35-62.65,58.1-4.55,36.05-19.95,49-28.7,49-3.15,0-5.6-1.75-6.65-4.55-2.45-7.7,7.35-26.6,24.5-42.7,3.5-3.15,2.8-1.75,3.15-6.3,2.1-17.85-.35-37.8,1.05-47.25v-2.1c-.7.35-24.15,21-46.2,42-1.05,7.7-1.4,10.85-3.15,16.1ZM359.15,255.5c12.95,0,28-29.75,30.45-40.25.35-1.4.7-2.1.35-2.1-1.05,0-39.9,42.35-30.8,42.35ZM426.7,255.5c.7,0,1.4-.35,2.8-1.05-.35,0,3.5-1.4,7.35-7,4.2-5.95,7.7-17.15,8.4-24.15.35-2.1.7-1.75-.35-.7-6.65,7-17.15,19.25-19.25,28.7-.35,2.8-.35,4.2,1.05,4.2Z"/>
  <path class="cls-1" d="M528.55,207.55c-6.65,0-8.75-7.7-8.75-18.2.35-7,.7-4.9-1.05-8.4-19.25-32.9,19.25-72.45,40.25-72.45,3.5,0,6.65,1.05,8.75,3.5,13.65,14-5.6,55.65-14.7,72.8-2.45,4.55-2.45,4.2-.7,4.2,8.05-1.4,30.45-17.85,62.65-40.95,5.95,1.05,4.9,4.9,1.4,7.35-36.75,26.6-55.3,41.65-68.95,41.3-3.15,0-6.3,6.3-12.6,9.1-2.45,1.05-4.55,1.75-6.3,1.75ZM524,165.9c5.6-22.4,16.8-38.85,15.4-38.15-1.4.7-21.7,19.25-17.15,41.3,0,.7.35,1.4.35,1.4.35,0,.7-1.4,1.4-4.55ZM529.6,200.2c1.75,0,4.55-2.1,5.6-3.15,3.15-2.8,2.1,0-5.6-4.9l-2.1-1.4c-.35,0,0,5.6.35,7,.35,1.75.7,2.45,1.75,2.45ZM529.95,183.05c2.8,2.1,4.2,3.15,5.6,3.85,2.8,1.05,4.55,1.75,5.6,1.75.35,0,.7,0,1.05-.35,2.8-3.15,24.85-46.2,21.7-65.1-1.05-5.6-1.75-5.95-6.3-5.95-2.8.7-10.85,4.2-9.1,4.2,1.05,0,2.45,1.75,2.1,3.15,0,.7-.35,1.4-2.1,3.15-5.6,6.3-15.05,29.05-18.55,44.45-2.1,9.1-2.1,8.75,0,10.85Z"/>
  <path class="cls-1" d="M606.94,187.6c-4.9,0-4.2-4.55-2.1-8.75,4.2-9.1,18.55-67.2,28.35-67.2.35,0,.7,0,1.05.35,3.5,2.1,1.05,4.55-10.15,36.4-1.4,4.2-2.8,7-2.45,7s2.45-3.15,8.05-10.85c12.25-16.8,18.55-24.85,26.6-25.2,2.8,0,4.55,0,6.65,2.1,5.6,6.65,4.55,13.65,2.45,25.2-5.25,35.35-4.55,49.35,2.8,49.35,9.1,0,27.65-20.3,56-47.95,8.05,1.4,3.15,5.6-3.5,11.9-28.35,28-39.55,43.75-53.55,43.4-2.1,0-3.85-.35-3.85-.35-10.15-4.2-11.9-18.2-11.9-27.65-.35-22.05,6.65-31.85,5.25-44.45,0-3.5-.35-3.85-1.4-3.85-5.95,0-38.5,43.75-42.7,53.2-2.1,6.3-3.15,7.35-5.6,7.35Z"/>
  <path class="cls-1" d="M967.8,148.05h1.05c1.75,0,3.15,1.4,2.8,3.15-.35,3.15-58.8,67.2-72.45,81.2-28.35,29.75-50.75,55.65-74.9,64.4-4.9,1.75-9.8,2.8-14.35,2.8-14.7,0-25.9-9.45-30.8-29.05-14.7-54.95,29.4-182,60.9-228.9,11.2-16.8,32.55-41.65,52.15-41.65,2.8,0,5.25.35,7.7,1.4,29.4,10.5,13.65,63.35,11.55,84.35-1.05,9.8-3.85,12.6-6.65,12.6-1.75,0-3.5-1.4-4.2-2.8-.7-1.75-1.4-10.85-.7-15.4.7-5.95,2.45-9.45,4.9-9.45.35,0,.7,0,1.4.35.35.35.7.35.7.35.35,0,0-.35.35-1.75,7.7-43.05.35-61.95-13.65-61.95-7.7,0-16.8,5.25-26.95,15.05-34.65,33.6-52.15,96.95-64.4,132.3-10.15,30.1-28.7,112.7-4.2,133,3.5,3.15,8.05,4.2,12.6,4.2,10.5,0,22.75-6.3,31.5-12.6,31.85-24.5,124.95-131.25,125.65-131.6Z"/>
  <path class="cls-1" d="M1028.34,134.75c0,2.1-1.75,2.45-4.2,2.45h-4.55c-9.45,0-24.85,2.45-42.7,32.55-5.6,8.75-8.4,12.6-12.25,19.95-1.05,1.75-2.1,3.5-2.45,4.55-1.05,1.4-2.8,2.1-4.55,2.1-.7,0-1.4,0-2.1-.35-4.55-3.15-2.45-9.1,4.9-28.35,0,0,10.5-30.45,19.25-44.45,1.05-2.1,2.45-2.8,4.2-2.8,1.05,0,2.45.7,3.15,2.45,2.8,6.3-11.55,33.25-9.8,33.25.35,0,1.05-.7,2.1-2.1,13.65-16.1,21.7-22.75,42.7-22.75,2.1,0,3.85,0,4.55.35,1.4.7,2.1,1.75,1.75,3.15Z"/>
  <path class="cls-1" d="M1040.58,130.9c.7,0,1.05,0,1.75.35,1.05.7,1.75,1.75,2.1,3.5.35,3.85-15.4,41.3-12.6,46.55.35.7,1.05,1.05,1.75,1.05,7.7,0,28.35-31.85,33.25-39.9,1.4-2.8,2.45-3.5,4.2-3.5,2.45,0,3.5,1.4,3.5,4.2-.35,5.25-4.55,9.1-8.4,29.05-1.75,9.1-5.25,31.85,2.1,36.75.7.35,1.75.7,2.45.7,5.25,0,12.25-6.65,15.05-9.8,34.3-44.8,31.15-43.05,37.45-51.8,4.55,1.05,4.55,2.1,2.45,5.6-8.05,14.35-38.15,62.3-55.3,62.3-2.1,0-3.85-.35-3.5-.35-17.5-5.95-7.7-46.9-7.7-49.7q.35-.7-3.15,3.85c-8.05,10.5-15.4,17.85-19.6,19.6-1.4.35-2.45.7-3.85.7-8.75,0-16.45-12.25-2.1-45.5,4.55-9.8,7-13.65,10.15-13.65Z"/>
  <path class="cls-1" d="M1117.93,164.15c-1.05,2.1-2.45,2.8-3.5,2.8-1.4,0-2.1-1.05-2.45-2.45-1.05-4.9,21.35-32.9,50.4-41.65,3.85-1.05,7-1.75,9.1-1.75,3.15,0,5.25,1.05,6.65,3.5,1.4,2.8.7,6.65-.7,9.45-1.75,3.15-8.75,11.9-12.95,16.45-1.75,1.75-2.1,2.1-1.4,2.1,0,0,.7,0,1.4-.35,4.55-1.4,10.15-2.45,15.05-2.45,8.4,0,16.45,2.8,19.95,10.15,4.2,8.75,2.1,15.75,2.8,15.75.35,0,39.9-21.35,49-27.65,4.55,2.1,6.65,4.55,0,8.75-10.5,6.65-33.95,19.6-50.4,28.7-6.3,24.15-30.45,57.4-56.35,77.7-17.85,14-40.6,23.8-54.95,23.8-7.7,0-12.95-2.8-13.65-9.45-1.4-14,21-43.75,65.1-70.35,14.35-8.75,53.9-27.3,54.25-28.35.7-1.4.7-7.35,0-10.15-1.4-8.75-7-11.55-14-11.55s-15.75,2.8-23.8,6.3c-2.1.7-5.95,2.45-8.75,2.45-1.4,0-2.8-.35-3.5-1.4-2.45-2.45-2.1-4.9,1.05-8.75,3.5-4.2,24.15-24.15,24.15-26.6,0-.7-4.55.35-8.05,1.4-18.2,6.3-37.45,22.05-44.45,33.6ZM1088.88,280.35c40.25,0,91.7-56.35,103.95-92.05-32.2,15.4-89.6,44.8-107.1,79.45-4.55,9.1-3.5,12.6,3.15,12.6Z"/>
</svg>