<?xml version="1.0" encoding="UTF-8"?>
<svg id="Camada_1" data-name="Camada 1" xmlns="http://www.w3.org/2000/svg" viewBox="0 0 1643.75 349.4">
  <defs>
    <style>
      .cls-1 {
        fill: #1f3548;
      }

      .cls-2 {
        fill: #b05f46;
      }
    </style>
  </defs>
  <path class="cls-1" d="M699.23,124.69c2.58-57.63-38.03-108.95-99.43-109.72l-164.01-2.06-.7,50.96,147.64.48c34.21.11,56.34,23.69,57.53,55.54.97,25.9-18.18,55.93-50.03,56.13l-154.98.97.03,172.07,58.47-.11.68-123.63,65.5-.15,83.09,124.24,67.92-.72-87.67-127.48c47.26-14.64,73.88-49.88,75.97-96.52Z"/>
  <path class="cls-1" d="M1032.8,214.36c-.07,50.3-38.23,81.9-87.17,80.08-42.22-1.57-79.56-29.44-79.77-75.66l-.99-211.96-58.18-.5.89,222.51c.18,44.27,28.8,85.19,67.14,103.5,49.28,23.53,105.25,22.85,153.32-2.82,36.25-19.36,62.24-59.49,62.41-101.95l.87-221.07-58.24.25-.28,207.62Z"/>
  <path class="cls-1" d="M178.54,53.24c43.53.13,81.73,19.57,101.73,59.58l59.06-9.11C312.66,34.16,247.87.73,178.51.01,83.55-.97,9.95,63.68.91,157.02c-10.39,107.23,68.89,193.63,177.69,192.37,70.26-.81,134.57-37.04,160.43-103.61l-59.93-6.02c-19.6,36.31-55.75,53.86-95.7,55.47-73.12,2.94-126.63-50.79-123.76-125.69,2.65-69.29,51.18-116.5,118.9-116.3Z"/>
  <polygon class="cls-1" points="1443.09 349.23 1187.19 349.4 1187.08 303.03 1362.74 64.95 1189.86 64.13 1189.75 13.32 1437.95 13.25 1437.73 60.65 1263.25 296.13 1442.49 297.56 1443.09 349.23"/>
  <rect class="cls-2" x="1538.85" y="244.5" width="104.91" height="104.91"/>
</svg>