<?xml version="1.0" encoding="UTF-8"?>
<svg id="Camada_1" xmlns="http://www.w3.org/2000/svg" version="1.1" viewBox="0 0 24 24">
  <!-- Generator: Adobe Illustrator 30.3.0, SVG Export Plug-In . SVG Version: 2.1.3 Build 182)  -->
  <defs>
    <style>
      .st0 {
        fill: #d06c40;
      }
    </style>
  </defs>
  <path class="st0" d="M12,20.4c-4.6,0-8.4-3.8-8.4-8.4S7.4,3.6,12,3.6s8.4,3.8,8.4,8.4-3.8,8.4-8.4,8.4ZM12,5.4c-3.6,0-6.6,3-6.6,6.6s3,6.6,6.6,6.6,6.6-3,6.6-6.6-3-6.6-6.6-6.6Z"/>
  <path class="st0" d="M12,6.4c-.5,0-.9-.4-.9-.9v-2c0-.5.4-.9.9-.9s.9.4.9.9v2c0,.5-.4.9-.9.9Z"/>
  <path class="st0" d="M12,21.4c-.5,0-.9-.4-.9-.9v-2c0-.5.4-.9.9-.9s.9.4.9.9v2c0,.5-.4.9-.9.9Z"/>
  <path class="st0" d="M5.5,12.9h-2c-.5,0-.9-.4-.9-.9s.4-.9.9-.9h2c.5,0,.9.4.9.9s-.4.9-.9.9Z"/>
  <path class="st0" d="M20.5,12.9h-2c-.5,0-.9-.4-.9-.9s.4-.9.9-.9h2c.5,0,.9.4.9.9s-.4.9-.9.9Z"/>
  <path class="st0" d="M9.4,15.5c-.2,0-.5,0-.6-.3-.2-.2-.3-.6-.2-.9l1.3-3.9c0-.3.3-.5.6-.6l3.9-1.3c.3-.1.7,0,.9.2.2.2.3.6.2.9l-1.3,3.9c0,.3-.3.5-.6.6l-3.9,1.3c0,0-.2,0-.3,0ZM11.4,11.4l-.6,1.8,1.8-.6.6-1.8-1.8.6Z"/>
</svg>