<?xml version="1.0" encoding="UTF-8"?>
<svg id="Camada_1" xmlns="http://www.w3.org/2000/svg" version="1.1" viewBox="0 0 24 24">
  <!-- Generator: Adobe Illustrator 30.3.0, SVG Export Plug-In . SVG Version: 2.1.3 Build 182)  -->
  <defs>
    <style>
      .st0 {
        fill: #d16d41;
      }
    </style>
  </defs>
  <path class="st0" d="M9,15.6c-.2,0-.4,0-.6-.2l-4-3.5c-.4-.3-.4-.9,0-1.3.3-.4.9-.4,1.3,0l3.4,2.9,9.4-9.4c.4-.4.9-.4,1.3,0,.4.4.4.9,0,1.3l-10,10c-.2.2-.4.3-.6.3Z"/>
  <path class="st0" d="M18,3.6H6c-.5,0-.9-.4-.9-.9s.4-.9.9-.9h12c.5,0,.9.4.9.9s-.4.9-.9.9Z"/>
  <path class="st0" d="M18,22.2H6c-.5,0-.9-.4-.9-.9s.4-.9.9-.9h12c.5,0,.9.4.9.9s-.4.9-.9.9Z"/>
  <path class="st0" d="M20,7.6H4c-.5,0-.9-.4-.9-.9s.4-.9.9-.9h16c.5,0,.9.4.9.9s-.4.9-.9.9Z"/>
  <path class="st0" d="M20,18.9H4c-.5,0-.9-.4-.9-.9s.4-.9.9-.9h16c.5,0,.9.4.9.9s-.4.9-.9.9Z"/>
</svg>