<?xml version="1.0" encoding="UTF-8"?>
<svg id="Camada_1" xmlns="http://www.w3.org/2000/svg" version="1.1" viewBox="0 0 24 24">
  <!-- Generator: Adobe Illustrator 30.3.0, SVG Export Plug-In . SVG Version: 2.1.3 Build 182)  -->
  <defs>
    <style>
      .st0 {
        fill: #d16d40;
      }
    </style>
  </defs>
  <path class="st0" d="M17,21.9H6c-1,0-1.9-.9-1.9-1.9V4.5c0-1,.9-1.9,1.9-1.9h8c.2,0,.5,0,.6.3l4,4c.2.2.3.4.3.6v12.5c0,1-.9,1.9-1.9,1.9ZM6,4.4c0,0-.1,0-.1.1v15.5c0,0,0,0,.1,0h11c0,0,0,0,0,0V7.9l-3.5-3.5h-7.6Z"/>
  <path class="st0" d="M18,8.4h-4c-.5,0-.9-.4-.9-.9V3.5c0-.5.4-.9.9-.9s.9.4.9.9v3.1h3.1c.5,0,.9.4.9.9s-.4.9-.9.9Z"/>
  <path class="st0" d="M15,12.9h-7c-.5,0-.9-.4-.9-.9s.4-.9.9-.9h7c.5,0,.9.4.9.9s-.4.9-.9.9Z"/>
  <path class="st0" d="M14,15.9h-6c-.5,0-.9-.4-.9-.9s.4-.9.9-.9h6c.5,0,.9.4.9.9s-.4.9-.9.9Z"/>
  <path class="st0" d="M11,18.9h-3c-.5,0-.9-.4-.9-.9s.4-.9.9-.9h3c.5,0,.9.4.9.9s-.4.9-.9.9Z"/>
</svg>